<?xml version="1.0" encoding="utf-8"?>
<!-- Generator: Adobe Illustrator 16.0.1, SVG Export Plug-In . SVG Version: 6.00 Build 0)  -->
<!DOCTYPE svg PUBLIC "-//W3C//DTD SVG 1.1//EN" "http://www.w3.org/Graphics/SVG/1.1/DTD/svg11.dtd">
<svg version="1.1" id="Layer_1" xmlns="http://www.w3.org/2000/svg" xmlns:xlink="http://www.w3.org/1999/xlink" x="0px" y="0px"
	 width="615px" height="347px" viewBox="0 0 615 347" enable-background="new 0 0 615 347" xml:space="preserve">
<g>
	<defs>
		<rect id="SVGID_1_" width="615" height="347"/>
	</defs>
	<clipPath id="SVGID_2_">
		<use xlink:href="#SVGID_1_"  overflow="visible"/>
	</clipPath>
	<path clip-path="url(#SVGID_2_)" fill="#38A5DA" d="M527.713,177.955c0.87-4.311,2.256-15.623,1.894-25.147
		c-0.435-11.496-4.907-22.512-12.592-31.021c-7.674-8.501-18.729-12.997-31.96-12.997c-0.755,0-1.519,0.015-2.306,0.045
		c-34.678,1.054-57.771,26.375-63.635,66.081c-3.17,21.458,0.478,38.731,10.543,49.953c7.793,8.686,23.884,13.276,37.813,13.276
		c0.66,0,1.322-0.009,1.994-0.029c25.257-0.77,39.022-9.336,53.227-26.97l1.035-1.279l-22.389-13.941l-0.851,0.835
		c-8.611,8.481-15.759,12.422-29.351,12.838c-0.293,0.008-0.584,0.013-0.872,0.013c-5.815,0-10.392-1.833-13.679-5.377
		c-9.804-10.565-5.147-26.279-5.147-26.279H527.713z M455.647,154.567c3.854-13.124,13.206-20.869,25.652-21.25
		c0.314-0.008,0.628-0.013,0.937-0.013c5.866,0,8.077,1.722,11.212,5.119c2.911,3.151,4.4,7.626,4.645,13.294
		c0.03,0.718,0.042,4.959-0.025,5.993h-43.341L455.647,154.567z"/>
	<path clip-path="url(#SVGID_2_)" fill="#38A5DA" d="M177.674,114.204c-11.996,0-20.914,2.913-28.918,9.444l-4.347,3.549
		l14.809-65.968h-34.807L85.334,238.016h41.798c42.011,0,84.908-30.683,84.908-79.462
		C212.041,131.197,198.872,114.204,177.674,114.204 M133.703,210.647c-1.825,0-3.4,0-4.85-0.289l-2.385-0.476l6.375-28.413
		c6.454-28.939,21.472-36.659,29.326-36.659c5.16,0,13.814,2.617,13.814,20.146C175.982,192.288,154.121,210.647,133.703,210.647"/>
	<path clip-path="url(#SVGID_2_)" fill="#38A5DA" d="M383.146,206.707c-13.772,2.992-9.593-9.954-9.593-9.954l13.49-54.401h25.485
		l6.569-28.151h-26.246l7.778-35.5H367.63l-8.204,35.5h-23.487l0.003-0.011l-11.841,0.011h-0.868v0.001l-22.812,0.021
		l-33.535,80.258l-15.737-80.226h-36.046l27.404,118.246l0.002,0.265c0.03,5.183-1.885,9.752-5.694,13.585
		c-7.757,7.802-21.543,10.53-28.286,11.234l9.354,28.187c42.517-1.225,64.593-47.232,64.853-47.89l41.092-95.53h26.927
		l-12.625,54.296c-0.972,4.868-1.71,9.003-1.71,13.369c0,16.563,13.449,28.242,32.179,27.998
		c14.937-0.195,27.317-1.374,46.816-11.649l-11.85-25.316C391.957,204.636,388.418,205.562,383.146,206.707"/>
</g>
</svg>
